<svg xmlns="http://www.w3.org/2000/svg" version="1.1" xmlns:xlink="http://www.w3.org/1999/xlink" xmlns:svgjs="http://svgjs.dev/svgjs" width="1000" height="623" viewBox="0 0 1000 623"><g transform="matrix(1,0,0,1,-0.6060606060606233,0.2522267206477409)"><svg viewBox="0 0 396 247" data-background-color="#272822" preserveAspectRatio="xMidYMid meet" height="623" width="1000" xmlns="http://www.w3.org/2000/svg" xmlns:xlink="http://www.w3.org/1999/xlink"><g id="tight-bounds" transform="matrix(1,0,0,1,0.2400000000000091,-0.09999999999999432)"><svg viewBox="0 0 395.52 247.2" height="247.2" width="395.52"><g><svg></svg></g><g><svg viewBox="0 0 395.52 247.2" height="247.2" width="395.52"><g transform="matrix(1,0,0,1,39.55200000000002,54.11952881335168)"><svg viewBox="0 0 316.41599999999994 138.96094237329663" height="138.96094237329663" width="316.41599999999994"><g><svg viewBox="0 0 627.3449809110598 275.5121414231855" height="138.96094237329663" width="316.41599999999994"><g transform="matrix(1,0,0,1,310.92898091105974,100.2503103972509)"><svg viewBox="0 0 316.416 75.01152062868368" height="75.01152062868368" width="316.416"><g id="textblocktransform"><svg viewBox="0 0 316.416 75.01152062868368" height="75.01152062868368" width="316.416" id="textblock"><g><svg viewBox="0 0 316.416 75.01152062868368" height="75.01152062868368" width="316.416"><g transform="matrix(1,0,0,1,0,0)"><svg width="316.416" viewBox="3.4000000953674316 -35.79999923706055 152.69000244140625 36.20000076293945" height="75.01152062868368" data-palette-color="#ce3962"><path d="M32.75-9.1L32.75-9.1Q32.75-6.05 31.13-4.03 29.5-2 26.75-1 24 0 20.7 0L20.7 0 3.4 0 3.4-35.5 23.15-35.5Q25.65-35.5 27.48-34.18 29.3-32.85 30.28-30.75 31.25-28.65 31.25-26.4L31.25-26.4Q31.25-23.9 29.95-21.63 28.65-19.35 26.15-18.2L26.15-18.2Q29.2-17.3 30.98-15 32.75-12.7 32.75-9.1ZM24.4-10.75L24.4-10.75Q24.4-11.9 23.95-12.78 23.5-13.65 22.78-14.18 22.05-14.7 21.05-14.7L21.05-14.7 11.6-14.7 11.6-6.95 20.7-6.95Q21.75-6.95 22.58-7.45 23.4-7.95 23.9-8.8 24.4-9.65 24.4-10.75ZM19.95-28.5L11.6-28.5 11.6-21.15 19.65-21.15Q20.55-21.15 21.33-21.55 22.1-21.95 22.6-22.78 23.1-23.6 23.1-24.85L23.1-24.85Q23.1-26.05 22.68-26.85 22.25-27.65 21.55-28.08 20.85-28.5 19.95-28.5L19.95-28.5ZM32.6-35.5L41.5-35.5 49.15-19.8 56.9-35.5 65.85-35.5 53.2-12.1 53.2 0 45.05 0 45.05-12.2 32.6-35.5ZM96.2-35.5L96.2-28.3 85.4-28.3 85.4 0 77.2 0 77.2-28.3 66.34-28.3 66.34-35.5 96.2-35.5ZM108.39-7.2L125.14-7.2 125.14 0 100.19 0 100.19-35.5 124.69-35.5 124.69-28.3 108.39-28.3 108.39-21.4 122.39-21.4 122.39-14.75 108.39-14.75 108.39-7.2ZM155.04-31.9L151.44-25.1Q151.29-25.35 150.39-25.88 149.49-26.4 148.14-27 146.79-27.6 145.19-28.05 143.59-28.5 141.99-28.5L141.99-28.5Q139.89-28.5 138.74-27.78 137.59-27.05 137.59-25.55L137.59-25.55Q137.59-24.35 138.47-23.65 139.34-22.95 140.99-22.43 142.64-21.9 145.04-21.2L145.04-21.2Q148.44-20.3 150.94-19.03 153.44-17.75 154.77-15.75 156.09-13.75 156.09-10.45L156.09-10.45Q156.09-7.45 154.99-5.38 153.89-3.3 152.02-2.02 150.14-0.75 147.74-0.18 145.34 0.4 142.79 0.4L142.79 0.4Q140.19 0.4 137.47-0.13 134.74-0.65 132.24-1.63 129.74-2.6 127.64-4L127.64-4 131.24-11.15Q131.44-10.9 132.54-10.23 133.64-9.55 135.27-8.83 136.89-8.1 138.89-7.55 140.89-7 142.94-7L142.94-7Q145.14-7 146.22-7.7 147.29-8.4 147.29-9.65L147.29-9.65Q147.29-11 146.17-11.75 145.04-12.5 143.12-13.1 141.19-13.7 138.69-14.45L138.69-14.45Q135.44-15.45 133.31-16.7 131.19-17.95 130.17-19.75 129.14-21.55 129.14-24.25L129.14-24.25Q129.14-28 130.92-30.58 132.69-33.15 135.69-34.48 138.69-35.8 142.24-35.8L142.24-35.8Q144.74-35.8 147.06-35.2 149.39-34.6 151.42-33.7 153.44-32.8 155.04-31.9L155.04-31.9Z" opacity="1" transform="matrix(1,0,0,1,0,0)" fill="#ce3962" class="undefined-text-0" data-fill-palette-color="primary" id="text-0"></path></svg></g></svg></g></svg></g></svg></g><g><svg viewBox="0 0 275.5121414231855 275.5121414231855" height="275.5121414231855" width="275.5121414231855"><g><svg></svg></g><g id="icon-0"><svg viewBox="0 0 275.5121414231855 275.5121414231855" height="275.5121414231855" width="275.5121414231855"><g><path d="M0 137.756c0-76.081 61.675-137.756 137.756-137.756 76.081 0 137.756 61.675 137.756 137.756 0 76.081-61.675 137.756-137.756 137.756-76.081 0-137.756-61.675-137.756-137.756zM137.756 268.748c72.345 0 130.991-58.647 130.992-130.992 0-72.345-58.647-130.991-130.992-130.991-72.345 0-130.991 58.647-130.991 130.991 0 72.345 58.647 130.991 130.991 130.992z" data-fill-palette-color="accent" fill="#ffffff" stroke="transparent"></path></g><g transform="matrix(1,0,0,1,55.545755814828624,72.25429012462409)"><svg viewBox="0 0 164.42062979352824 131.0035611739373" height="131.0035611739373" width="164.42062979352824"><g><svg xmlns="http://www.w3.org/2000/svg" xmlns:xlink="http://www.w3.org/1999/xlink" version="1.1" x="0" y="0" viewBox="30.286001205444336 34.2932014465332 39.42699432373047 31.413799285888672" enable-background="new 0 0 100 100" xml:space="preserve" height="131.0035611739373" width="164.42062979352824" class="icon-s-0" data-fill-palette-color="accent" id="s-0"><g fill="#ffffff" data-fill-palette-color="accent"><g fill="#ffffff" data-fill-palette-color="accent"><path d="M46.788 65.707c-0.157 0-0.318-0.018-0.479-0.055-1.117-0.263-1.808-1.383-1.545-2.499l6.427-27.26c0.263-1.115 1.38-1.805 2.499-1.545 1.117 0.263 1.808 1.383 1.545 2.499l-6.427 27.26C48.583 65.063 47.729 65.707 46.788 65.707z" fill="#ffffff" data-fill-palette-color="accent"></path></g><g fill="#ffffff" data-fill-palette-color="accent"><path d="M39.582 58.641c-0.5 0-1-0.179-1.397-0.54l-7.219-6.563c-0.433-0.393-0.68-0.951-0.68-1.537s0.247-1.144 0.68-1.537l7.219-6.563c0.847-0.773 2.16-0.712 2.934 0.14 0.773 0.849 0.709 2.163-0.14 2.934L35.452 50l5.528 5.026c0.849 0.771 0.912 2.086 0.14 2.934C40.71 58.412 40.147 58.641 39.582 58.641z" fill="#ffffff" data-fill-palette-color="accent"></path></g><g fill="#ffffff" data-fill-palette-color="accent"><path d="M60.418 58.641c-0.565 0-1.126-0.229-1.537-0.68-0.773-0.849-0.709-2.163 0.14-2.934L64.548 50l-5.528-5.026c-0.849-0.771-0.912-2.086-0.14-2.934 0.773-0.85 2.089-0.91 2.934-0.14l7.219 6.563c0.433 0.393 0.68 0.951 0.68 1.537s-0.247 1.144-0.68 1.537L61.815 58.1C61.418 58.462 60.918 58.641 60.418 58.641z" fill="#ffffff" data-fill-palette-color="accent"></path></g></g></svg></g></svg></g></svg></g></svg></g></svg></g></svg></g><g><path xmlns="http://www.w3.org/2000/svg" d="M0 247.2v-247.2h395.52v247.2zM392.108 243.788v-240.376h-388.696v240.376z" fill="#ce3962" fill-rule="nonzero" stroke="none" stroke-width="1" stroke-linecap="butt" stroke-linejoin="miter" stroke-miterlimit="10" stroke-dasharray="" stroke-dashoffset="0" font-family="none" font-weight="none" font-size="none" text-anchor="none" style="mix-blend-mode: normal" data-fill-palette-color="tertiary"></path></g></svg></g><defs><linearGradient x1="0" x2="1" y1="0.5" y2="0.5" id="fe3d29a8-9b64-48de-bc7e-569c44956da6"><stop stop-color="#f00b51" offset="0"></stop><stop stop-color="#730062" offset="1"></stop></linearGradient><linearGradient x1="0" x2="1" y1="0.5" y2="0.5" id="1f272f5e-2d74-4143-812e-5e3ae81d04cf"><stop stop-color="#ffa62e" offset="0"></stop><stop stop-color="#f71b3d" offset="1"></stop></linearGradient><linearGradient x1="0" x2="1" y1="0.5" y2="0.5" id="da6bd953-f7b1-4350-82a5-05f909084be6"><stop stop-color="#ffa62e" offset="0"></stop><stop stop-color="#f71b3d" offset="1"></stop></linearGradient><mask id="5d22b8cc-9a95-42a6-8701-2d4ae30a2362"><rect width="640" height="400" fill="white"></rect><rect width="348.05760000000004" height="110.42836011655794" fill="black" y="68.38581994172102" x="23.731199999999973" id="transform-me"></rect></mask></defs></svg><rect width="395.52" height="247.2" fill="none" stroke="none" visibility="hidden"></rect></g></svg></g></svg>